# xmcd
#
# Track frame offsets: 
#        150
#        4388
#        8091
#        24668
#        40831
#        46276
#        47833
#        49933
#        53608
#        63883
#        70146
#        74196
#        108734
#        121222
#        125647
#        133597
#        140497
#        145710
#        148635
#        152535
#        159735
#        163110
#        166151
#        173764
#        176277
#        179877
#        181790
#        185315
#        187790
#        193378
#        196791
#        200136
#        209249
#        221822
#        250622
#        265960
#
# Disc length: 3755 seconds
#
# Revision: 0
# Processed by: cddbd v1.5.2PL0 Copyright (c) Steve Scherf et al.
# Submitted via: ExactAudioCopy v0.99pb3
#
DISCID=240ea924
DTITLE=Various Artist - FGMA v13 n6
DYEAR=2009
DGENRE=Country
TTITLE0=Intro duction - Dan Miller
TTITLE1=Curtis Jones INtro
TTITLE2=John Hardy
TTITLE3=Craig Vance - Chinatown
TTITLE4=Joe Carr - Sally Goodin'
TTITLE5=Dan Huckabee - Intro
TTITLE6=Little Cabin HOme on the Hill (fast)
TTITLE7=Little Cabin Home on the Hill (slow)
TTITLE8=Steve Kaufman Intro
TTITLE9=Cuckoo's Nest
TTITLE10=John Carlini - Oh, Lady Be Good
TTITLE11=Jahn Carlini - Chord Discussion - Oh, Lady Be Good
TTITLE12=John Carlini - Lead Discussion - Oh, Lady be Good
TTITLE13=Oh, Lady be Good Rhythm Track
TTITLE14=Brad Davis - Nine Pound Hammer
TTITLE15=Jeff Troxel - Exercises 1 to 4
TTITLE16=Jeff Troxel - Exercises 5 to 7
TTITLE17=Kathy Barwick - Bury Me Beneath the Willow (fast)
TTITLE18=Kathy Barwick - Bury Me Beneath the Willow (slow)
TTITLE19=Orrin Star Intro
TTITLE20=Salty Dog Blues
TTITLE21=Salty Dog Blues (slow)
TTITLE22=John Miller - Crazy Creek
TTITLE23=Dix Bruce - Stone Walls and Steel Bars (fast)
TTITLE24=Dix Bruce - Stone Walls and Steel Bars (slow)
TTITLE25=Mide Maddux Intro
TTITLE26=Maddux Exercise 1
TTITLE27=Maddux Exercise 2
TTITLE28=Clarke's Etude (slow)
TTITLE29=Clarke's Etude (fast)
TTITLE30=Adam Granger Intro
TTITLE31=Saint Anne's Reel Variations
TTITLE32=Bill Bay - Place of Rest
TTITLE33=John McGann - I found a new Baby
TTITLE34=Paige Anderson - Lewis and Clark
TTITLE35=Roger Lasley - What a Friend We Have in Jesus
EXTD=
EXTT0=
EXTT1=
EXTT2=
EXTT3=
EXTT4=
EXTT5=
EXTT6=
EXTT7=
EXTT8=
EXTT9=
EXTT10=
EXTT11=
EXTT12=
EXTT13=
EXTT14=
EXTT15=
EXTT16=
EXTT17=
EXTT18=
EXTT19=
EXTT20=
EXTT21=
EXTT22=
EXTT23=
EXTT24=
EXTT25=
EXTT26=
EXTT27=
EXTT28=
EXTT29=
EXTT30=
EXTT31=
EXTT32=
EXTT33=
EXTT34=
EXTT35=
PLAYORDER=
